<svg width="45" height="46" viewBox="0 0 45 46" fill="none" xmlns="http://www.w3.org/2000/svg">
<g clip-path="url(#clip0_11_2943)">
<path d="M0.572519 46.001H44.4275C44.771 46.001 45 45.7713 45 45.4267V42.383C45 42.0384 44.771 41.8087 44.4275 41.8087H43.3397V38.9373C43.3397 38.5928 43.1107 38.363 42.7672 38.363H40.5344V19.584H42.7672C43.1107 19.584 43.3397 19.3543 43.3397 19.0097V15.1046C43.3397 14.76 43.1107 14.5303 42.7672 14.5303H41.1069C41.1069 14.5303 41.1069 14.5303 41.0496 14.4729L22.8435 0.115847C22.6145 -0.0564379 22.3282 -0.0564379 22.1565 0.115847L3.95038 14.4729C3.95038 14.4729 3.95038 14.4729 3.89313 14.5303H2.17557C1.83206 14.5303 1.60305 14.76 1.60305 15.1046V19.0097C1.60305 19.3543 1.83206 19.584 2.17557 19.584H4.4084V38.363H2.23282C1.88931 38.363 1.66031 38.5928 1.66031 38.9373V41.8087H0.572519C0.229008 41.8087 0 42.0384 0 42.383V45.4267C0 45.7713 0.28626 46.001 0.572519 46.001ZM39.3893 38.363H35.8397V19.584H39.3893V38.363ZM19.4657 19.584V38.363H10.3053V19.584H19.4657ZM20.6107 19.584H24.2176V38.363H20.6679L20.6107 19.584ZM25.3626 19.584H34.6374V38.363H25.3626V19.584ZM22.5 1.26441L39.2748 14.5303H5.72519L22.5 1.26441ZM2.74809 15.6789H42.1374V18.4354H2.74809V15.6789ZM5.55344 19.584H9.10305V38.363H5.55344C5.55344 38.363 5.55344 19.584 5.55344 19.584ZM2.80534 39.5116H42.1947V41.8087H2.80534V39.5116ZM1.14504 42.9573H43.855V44.8524H1.14504V42.9573Z" fill="white"/>
</g>
<defs>
<clipPath id="clip0_11_2943">
<rect width="45" height="46" fill="white"/>
</clipPath>
</defs>
</svg>
