<svg width="133" height="54" viewBox="0 0 133 54" fill="none" xmlns="http://www.w3.org/2000/svg">
<path d="M0.199707 26.2487V0.242065H7.03238V21.8267H14.0588V26.2546L0.199707 26.2487Z" fill="white"/>
<path d="M15.0545 26.2487L18.3486 0.242065H29.9063L33.1617 26.2487H26.6867L26.2098 22.0393H22.0809L21.6845 26.2487H15.0545ZM22.5967 17.8918H25.697L24.1886 4.66113H23.8547L22.5967 17.8918Z" fill="white"/>
<path d="M37.3323 26.2487L33.6924 0.242065H40.3641L42.272 16.6519L44.162 0.242065H50.5177L52.3421 16.6519L54.1695 0.242065H60.9217L57.1894 26.2487H49.0063L47.3011 13.7148L45.6704 26.2487H37.3323Z" fill="white"/>
<path d="M67.0806 26.2487V17.6881L61.6371 0.242065H68.3893L70.2943 9.05363L72.2022 0.242065H78.9484L73.5109 17.6792V26.2399L67.0806 26.2487Z" fill="white"/>
<path d="M80.6595 26.2487V0.242065H94.3189V5.26038H87.6085V10.3318H94.0417V15.2291H87.6085V21.192H94.7631V26.2487H80.6595Z" fill="white"/>
<path d="M97.0198 0.242065H107.504C109.174 0.242065 110.466 0.529388 111.38 1.10403C112.275 1.65773 112.933 2.51991 113.225 3.52463C113.576 4.82248 113.737 6.16363 113.702 7.50681C113.702 8.98082 113.452 10.1321 112.951 10.9606C112.444 11.7871 111.573 12.3628 110.327 12.6845C111.359 12.8469 112.116 13.2395 112.569 13.8653C113.022 14.4911 113.267 15.3413 113.267 16.4069L113.186 26.2487H106.512V16.0763C106.512 15.3501 106.326 14.8857 105.954 14.683C105.582 14.4803 104.908 14.3819 103.93 14.3878V26.2487H97.0198V0.242065ZM105.599 9.87132C106.551 9.87132 107.027 9.08414 107.027 7.50976C107.042 6.99243 107.002 6.47498 106.908 5.96589C106.887 5.82472 106.837 5.68916 106.762 5.56705C106.688 5.44494 106.589 5.3387 106.473 5.25447C106.192 5.10756 105.875 5.03919 105.558 5.05669H103.969V9.87132H105.599Z" fill="white"/>
<path d="M117.354 24.7344C115.977 23.5654 115.288 21.6781 115.288 19.0725V16.5309H121.998V19.7781C121.998 21.071 122.541 21.7165 123.626 21.7145C124.237 21.7145 124.661 21.5787 124.896 21.3042C125.132 21.0297 125.254 20.5751 125.254 19.9286C125.279 19.2067 125.144 18.4882 124.857 17.8239C124.614 17.2994 124.27 16.8271 123.844 16.4335C123.434 16.0616 122.7 15.481 121.641 14.6918L118.701 12.4513C116.424 10.7569 115.286 8.87946 115.288 6.819C115.288 4.59914 115.956 2.90865 117.291 1.74755C118.627 0.586454 120.58 0.00393593 123.152 0C126.223 0 128.433 0.619909 129.782 1.85973C131.131 3.09955 131.807 5.04291 131.809 7.68983H124.857L124.819 5.9039C124.824 5.74819 124.793 5.59329 124.728 5.45174C124.662 5.31018 124.563 5.18597 124.44 5.08916C124.134 4.87351 123.762 4.76922 123.388 4.79396C122.963 4.76273 122.541 4.88085 122.195 5.12754C122.064 5.2389 121.96 5.37838 121.891 5.53539C121.823 5.6924 121.791 5.86284 121.799 6.03378C121.799 6.88395 122.431 7.76067 123.704 8.66987L127.674 11.5775C128.492 12.1652 129.263 12.8135 129.982 13.517C130.601 14.1502 131.099 14.8893 131.451 15.6985C131.842 16.6438 132.031 17.6589 132.006 18.6799C132.006 21.2383 131.391 23.1807 130.161 24.5071C128.93 25.8335 126.898 26.4947 124.064 26.4908C120.964 26.4908 118.727 25.9053 117.354 24.7344Z" fill="white"/>
<path d="M79.7712 53.7579V27.7483H86.0911V37.0469H89.0722V27.7483H95.4011V53.755H89.0811V41.9472H86.1V53.755L79.7712 53.7579Z" fill="white"/>
<path d="M99.7415 52.1845C98.4756 50.9742 97.8426 49.1775 97.8426 46.7943V27.7483H104.01V46.5817C103.982 47.2412 104.083 47.8999 104.309 48.5212C104.507 48.9836 104.926 49.2158 105.564 49.2178C106.202 49.2198 106.621 48.9925 106.822 48.5359C107.048 47.9097 107.149 47.2461 107.12 46.5817V27.7483H113.288V46.7913C113.288 49.1726 112.654 50.9693 111.386 52.1816C110.118 53.3938 108.177 53.999 105.564 53.997C102.962 53.999 101.021 53.3948 99.7415 52.1845Z" fill="white"/>
<path d="M115.726 27.7483H124.336C126.651 27.7483 128.332 28.2127 129.38 29.1416C130.427 30.0705 130.951 31.5848 130.951 33.6847V34.833C130.951 37.3146 129.867 38.7984 127.698 39.2845C129.028 39.564 129.964 40.2193 130.506 41.2505C131.049 42.2817 131.32 43.6436 131.32 45.336C131.32 48.1049 130.816 50.1998 129.806 51.6207C128.796 53.0416 126.973 53.753 124.336 53.755H115.726V27.7483ZM123.227 37.5281C123.769 37.5281 124.139 37.3628 124.336 37.0292C124.557 36.5934 124.659 36.1082 124.634 35.6211V33.0175C124.634 32.1693 124.178 31.7452 123.265 31.7452H121.933V37.5281H123.227ZM125.036 47.2459V43.9988C125.079 43.3753 124.933 42.7534 124.616 42.2128C124.333 41.8114 123.832 41.6077 123.125 41.6077H121.933V49.147L122.562 49.1794C124.21 49.1883 125.036 48.5389 125.036 47.2489V47.2459Z" fill="white"/>
<path d="M16.2619 30.4287H14.825V29.9239H18.3278V30.4287H16.879V34.5053H16.2619V30.4287Z" fill="white"/>
<path d="M18.5513 32.9674C18.5395 33.1214 18.5617 33.2761 18.6162 33.4208C18.6708 33.5656 18.7565 33.6968 18.8674 33.8055C18.9783 33.9141 19.1117 33.9976 19.2584 34.0502C19.4051 34.1027 19.5615 34.1231 19.717 34.1098C20.0384 34.1195 20.3584 34.0622 20.656 33.9415L20.7603 34.3695C20.402 34.5141 20.0173 34.5835 19.6305 34.5732C19.4065 34.5896 19.1816 34.5579 18.9711 34.4803C18.7607 34.4026 18.5696 34.2808 18.4111 34.1233C18.2526 33.9658 18.1303 33.7762 18.0526 33.5675C17.975 33.3588 17.9437 33.136 17.9611 32.9142C17.9611 31.9224 18.5573 31.1431 19.553 31.1431C20.6649 31.1431 20.9601 32.0847 20.9601 32.6899C20.9594 32.7829 20.9514 32.8756 20.9362 32.9674H18.5513ZM20.3639 32.5393C20.3639 32.1585 20.1999 31.5681 19.5053 31.5681C18.8793 31.5681 18.611 32.129 18.5573 32.5393H20.3639Z" fill="white"/>
<path d="M24.0187 34.3813C23.7106 34.5147 23.377 34.5802 23.0409 34.5732C22.8147 34.5871 22.5882 34.5532 22.3764 34.4736C22.1645 34.394 21.9722 34.2706 21.8123 34.1117C21.6524 33.9528 21.5285 33.762 21.4489 33.5519C21.3693 33.3419 21.3358 33.1174 21.3506 32.8936C21.3506 31.881 22.0661 31.149 23.175 31.149C23.469 31.1447 23.7606 31.2021 24.0306 31.3172L23.8905 31.7777C23.6686 31.6685 23.4227 31.6157 23.175 31.6242C23.011 31.6229 22.8483 31.6535 22.6962 31.7144C22.5442 31.7753 22.4057 31.8653 22.2887 31.9792C22.0525 32.2092 21.9183 32.5227 21.9155 32.8508C21.9127 33.1788 22.0417 33.4945 22.274 33.7284C22.5063 33.9623 22.8229 34.0952 23.1542 34.098C23.4157 34.0983 23.6742 34.0419 23.9114 33.9327L24.0187 34.3813Z" fill="white"/>
<path d="M24.6119 29.6818H25.229V31.7482C25.3349 31.5696 25.4886 31.4235 25.6732 31.3261C25.8644 31.2165 26.0813 31.1585 26.3022 31.1578C26.7583 31.1578 27.4947 31.4294 27.4947 32.5629V34.5201H26.8865V32.6308C26.8865 32.0995 26.6838 31.6537 26.1025 31.6537C25.92 31.6567 25.7428 31.7148 25.5947 31.8203C25.4465 31.9259 25.3345 32.0737 25.2737 32.2441C25.2372 32.3381 25.2219 32.4389 25.229 32.5393V34.523H24.6119V29.6818Z" fill="white"/>
<path d="M29.8169 34.5053V31.6715H29.34V31.2169H29.8169V31.0604C29.8 30.8526 29.8262 30.6435 29.8938 30.446C29.9615 30.2485 30.0692 30.0668 30.2104 29.9121C30.4385 29.7126 30.735 29.607 31.0392 29.6169C31.2188 29.6159 31.3969 29.6489 31.5639 29.7143L31.4804 30.1748C31.3565 30.1209 31.2222 30.0947 31.0869 30.0981C30.5622 30.0981 30.4281 30.5497 30.4281 31.0516V31.2287H31.2479V31.6833H30.4132V34.5172L29.8169 34.5053Z" fill="white"/>
<path d="M34.6493 32.8345C34.6666 33.0622 34.6352 33.291 34.5572 33.5059C34.4792 33.7208 34.3562 33.917 34.1964 34.0816C34.0366 34.2463 33.8436 34.3757 33.6298 34.4614C33.4161 34.5471 33.1865 34.5873 32.956 34.5791C32.0378 34.5791 31.3313 33.9268 31.3313 32.8877C31.3313 31.7866 32.0736 31.1431 33.0156 31.1431C33.9576 31.1431 34.6493 31.825 34.6493 32.8345ZM31.9663 32.867C31.9663 33.5873 32.3955 34.1304 32.9977 34.1304C33.5999 34.1304 34.0292 33.5961 34.0292 32.8552C34.0292 32.2943 33.7311 31.5888 33.0126 31.5888C32.2942 31.5888 31.9543 32.2412 31.9543 32.867H31.9663Z" fill="white"/>
<path d="M35.2992 32.2412C35.2992 31.8545 35.2992 31.5209 35.2723 31.2168H35.8149L35.8328 31.8604H35.8626C35.9228 31.6581 36.046 31.4798 36.2147 31.351C36.3833 31.2221 36.5888 31.1494 36.8016 31.143C36.8617 31.1425 36.9217 31.1484 36.9805 31.1608V31.7246C36.9098 31.7108 36.8379 31.7039 36.7659 31.7039C36.5571 31.7109 36.3582 31.793 36.2062 31.9348C36.0542 32.0766 35.9596 32.2685 35.9401 32.4744C35.9217 32.5648 35.9117 32.6567 35.9103 32.7489V34.5201H35.3141L35.2992 32.2412Z" fill="white"/>
<path d="M39.8215 29.9239H40.4326V32.991C40.4326 34.2042 39.8125 34.5791 38.9987 34.5791C38.7765 34.5788 38.5558 34.5419 38.3458 34.4699L38.4382 33.9887C38.6026 34.0478 38.7761 34.0778 38.951 34.0773C39.4995 34.0773 39.8215 33.8382 39.8215 32.9437V29.9239Z" fill="white"/>
<path d="M44.1411 33.608C44.1411 33.9445 44.1411 34.2485 44.1709 34.4936H43.6224L43.5896 33.9563C43.4732 34.1464 43.3084 34.303 43.1117 34.4102C42.915 34.5175 42.6933 34.5716 42.4687 34.5674C41.9351 34.5674 41.2942 34.2722 41.2942 33.1268V31.2051H41.9113V33.0235C41.9113 33.6493 42.108 34.0714 42.6715 34.0714C42.8453 34.0687 43.0146 34.0159 43.1586 33.9195C43.3026 33.823 43.4151 33.6871 43.4823 33.5283C43.5198 33.4342 43.54 33.3342 43.5419 33.2331V31.2169H44.156L44.1411 33.608Z" fill="white"/>
<path d="M44.9579 33.8913C45.2033 34.0402 45.484 34.1227 45.7717 34.1304C46.2219 34.1304 46.4306 33.9149 46.4306 33.6433C46.4306 33.3718 46.2547 33.2006 45.7986 33.0352C45.1874 32.8257 44.9042 32.5009 44.9042 32.1054C44.9042 31.577 45.3454 31.143 46.0758 31.143C46.3668 31.1385 46.6541 31.2075 46.9105 31.3438L46.7585 31.7777C46.5469 31.6547 46.3062 31.5895 46.0609 31.5888C45.6972 31.5888 45.4915 31.7954 45.4915 32.0375C45.4915 32.2795 45.6972 32.4301 46.1384 32.5954C46.7346 32.8109 47.0327 33.0972 47.0327 33.5873C47.0327 34.1776 46.5707 34.5732 45.7628 34.5732C45.4308 34.5792 45.1027 34.502 44.8088 34.3489L44.9579 33.8913Z" fill="white"/>
<path d="M48.4368 30.2722V31.2168H49.3312V31.6714H48.4368V33.4426C48.4368 33.85 48.5561 34.0802 48.8989 34.0802C49.0205 34.082 49.1417 34.0681 49.2596 34.0389L49.2865 34.4876C49.1101 34.5475 48.9243 34.5755 48.7379 34.5703C48.6155 34.5775 48.4929 34.5589 48.3783 34.5156C48.2636 34.4724 48.1596 34.4055 48.0732 34.3193C47.886 34.0736 47.8007 33.7663 47.8347 33.4603V31.6685H47.307V31.2139H47.8347V30.4257L48.4368 30.2722Z" fill="white"/>
<path d="M50.5773 30.2929C50.5688 30.3877 50.5248 30.476 50.4539 30.5402C50.383 30.6045 50.2904 30.6402 50.1942 30.6402C50.0981 30.6402 50.0054 30.6045 49.9345 30.5402C49.8636 30.476 49.8196 30.3877 49.8111 30.2929C49.8103 30.2427 49.8198 30.1928 49.8391 30.1463C49.8584 30.0999 49.887 30.0578 49.9233 30.0227C49.9596 29.9876 50.0027 29.9602 50.0501 29.9422C50.0974 29.9242 50.148 29.916 50.1987 29.918C50.249 29.9159 50.2991 29.9242 50.346 29.9423C50.3929 29.9604 50.4355 29.9879 50.4711 30.0231C50.5067 30.0584 50.5345 30.1005 50.5528 30.147C50.571 30.1934 50.5794 30.2431 50.5773 30.2929ZM49.8887 34.5053V31.2168H50.5057V34.5053H49.8887Z" fill="white"/>
<path d="M53.8267 34.3813C53.5198 34.5148 53.1871 34.5803 52.8519 34.5732C52.6258 34.5871 52.3992 34.5532 52.1874 34.4736C51.9756 34.394 51.7833 34.2706 51.6234 34.1117C51.4634 33.9528 51.3395 33.762 51.2599 33.5519C51.1803 33.3419 51.1468 33.1174 51.1616 32.8936C51.1531 32.6571 51.1949 32.4216 51.2842 32.2021C51.3736 31.9827 51.5085 31.7843 51.6802 31.6198C51.8519 31.4553 52.0567 31.3284 52.2811 31.2473C52.5056 31.1662 52.7447 31.1327 52.9831 31.149C53.2781 31.1443 53.5707 31.2017 53.8416 31.3172L53.7015 31.7777C53.4787 31.668 53.2317 31.6152 52.9831 31.6242C52.6665 31.6435 52.3691 31.7811 52.151 32.0092C51.9328 32.2372 51.8103 32.5387 51.808 32.8528C51.8057 33.1669 51.9239 33.4702 52.1387 33.7013C52.3535 33.9324 52.6489 34.0742 52.9652 34.098C53.2257 34.0979 53.4832 34.0415 53.7194 33.9326L53.8267 34.3813Z" fill="white"/>
<path d="M54.724 32.9674C54.7122 33.1214 54.7343 33.2761 54.7889 33.4208C54.8435 33.5656 54.9292 33.6968 55.04 33.8055C55.1509 33.9141 55.2843 33.9976 55.431 34.0502C55.5777 34.1027 55.7342 34.1231 55.8896 34.1098C56.2111 34.1195 56.531 34.0622 56.8287 33.9415L56.933 34.3695C56.5747 34.5141 56.19 34.5835 55.8032 34.5732C55.5792 34.5896 55.3543 34.5579 55.1438 34.4803C54.9333 34.4026 54.7423 34.2808 54.5838 34.1233C54.4252 33.9658 54.303 33.7762 54.2253 33.5675C54.1476 33.3588 54.1164 33.136 54.1338 32.9142C54.1338 31.9224 54.73 31.1431 55.7257 31.1431C56.8376 31.1431 57.1298 32.0847 57.1298 32.6899C57.1282 32.7827 57.1213 32.8754 57.1089 32.9674H54.724ZM56.5335 32.5393C56.5335 32.1585 56.3726 31.5681 55.678 31.5681C55.0519 31.5681 54.7836 32.129 54.73 32.5393H56.5335Z" fill="white"/>
<path d="M13.9396 32.126H1.84229V32.5127H13.9396V32.126Z" fill="white"/>
<path d="M1.01357 33.3186C0.81344 33.3192 0.617642 33.2609 0.450995 33.1512C0.284348 33.0415 0.154356 32.8852 0.0774978 32.7022C0.000639223 32.5193 -0.019625 32.3178 0.0192738 32.1234C0.0581726 31.929 0.154483 31.7504 0.295996 31.6103C0.437509 31.4702 0.617853 31.3748 0.814166 31.3363C1.01048 31.2978 1.21392 31.3178 1.3987 31.3939C1.58349 31.47 1.74129 31.5988 1.85211 31.7638C1.96293 31.9288 2.02177 32.1227 2.02118 32.3209C2.02118 32.5855 1.91502 32.8393 1.72606 33.0264C1.53709 33.2135 1.2808 33.3186 1.01357 33.3186ZM1.01357 31.6744C0.885162 31.6744 0.759634 31.7121 0.652827 31.7826C0.546021 31.8532 0.462724 31.9535 0.413449 32.071C0.364175 32.1884 0.351133 32.3176 0.375968 32.4424C0.400803 32.5671 0.462402 32.6818 0.552992 32.7719C0.643581 32.862 0.759099 32.9235 0.884966 32.9487C1.01083 32.9739 1.14141 32.9615 1.26021 32.9133C1.37901 32.865 1.48071 32.783 1.55248 32.6776C1.62424 32.5721 1.66286 32.448 1.66345 32.3209C1.66384 32.2361 1.64732 32.1521 1.61484 32.0737C1.58235 31.9953 1.53455 31.924 1.47416 31.8639C1.41377 31.8038 1.342 31.7562 1.26296 31.7236C1.18392 31.6911 1.09916 31.6744 1.01357 31.6744Z" fill="white"/>
<path d="M59.142 32.5128H71.2393V32.1261H59.142V32.5128Z" fill="white"/>
<path d="M71.0604 32.3209C71.0604 32.1235 71.1195 31.9306 71.2302 31.7666C71.341 31.6025 71.4983 31.4746 71.6824 31.3991C71.8665 31.3236 72.0691 31.3038 72.2646 31.3423C72.4601 31.3808 72.6396 31.4758 72.7805 31.6154C72.9214 31.7549 73.0174 31.9327 73.0563 32.1262C73.0952 32.3198 73.0752 32.5204 72.9989 32.7027C72.9227 32.885 72.7935 33.0408 72.6278 33.1505C72.4621 33.2601 72.2673 33.3186 72.068 33.3186C71.801 33.3179 71.5452 33.2125 71.3564 33.0255C71.1676 32.8386 71.0612 32.5853 71.0604 32.3209ZM71.4211 32.3209C71.4217 32.4482 71.4604 32.5724 71.5323 32.6779C71.6042 32.7834 71.7061 32.8654 71.8251 32.9136C71.944 32.9617 72.0748 32.9739 72.2007 32.9485C72.3267 32.9231 72.4422 32.8613 72.5326 32.7709C72.6231 32.6805 72.6845 32.5655 72.709 32.4406C72.7335 32.3156 72.72 32.1863 72.6703 32.0689C72.6205 31.9516 72.5368 31.8514 72.4296 31.7812C72.3224 31.711 72.1966 31.6738 72.068 31.6744C71.9826 31.6744 71.898 31.6912 71.8191 31.7237C71.7402 31.7563 71.6686 31.804 71.6085 31.8641C71.5483 31.9242 71.5008 31.9955 71.4687 32.0739C71.4365 32.1523 71.4203 32.2363 71.4211 32.3209Z" fill="white"/>
</svg>
